<svg width="20" height="18" viewBox="0 0 20 18" fill="none" xmlns="http://www.w3.org/2000/svg">
<path d="M9.90371 17.2531V15.2999L15.8459 9.35768L17.7992 11.3109L11.8569 17.2531H9.90371ZM0 11.476V9.82535H8.2531V11.476H0ZM18.9821 10.128L17.0289 8.17473L17.8267 7.37693C17.9734 7.23021 18.166 7.15685 18.4044 7.15685C18.6428 7.15685 18.8354 7.23021 18.9821 7.37693L19.7799 8.17473C19.9266 8.32146 20 8.51403 20 8.75245C20 8.99087 19.9266 9.18344 19.7799 9.33017L18.9821 10.128ZM0 6.93677V5.28615H12.9298V6.93677H0ZM0 2.39757V0.746948H12.9298V2.39757H0Z" fill="#FEFFFD"/>
</svg>
