<svg width="40" height="40" viewBox="0 0 40 40" fill="none" xmlns="http://www.w3.org/2000/svg">
<g clip-path="url(#clip0_18_233)">
<path d="M20.9455 8.16789C21.8759 9.48332 22.8065 10.7986 23.7364 12.1144C23.8255 12.2404 23.9108 12.3692 24.0119 12.5413C24.042 12.6069 24.0613 12.6245 24.0838 12.6385C24.0838 12.6385 24.08 12.64 24.0897 12.6544C24.1118 12.69 24.1267 12.7093 24.1441 12.7266C24.1441 12.7266 24.1558 12.7576 24.1547 12.8014C24.083 12.9245 24.0115 13.0031 23.9421 13.0835C23.8914 13.1422 23.8435 13.2033 23.7944 13.2634C23.876 13.3024 23.9593 13.3766 24.0388 13.3727C24.1917 13.3652 24.3425 13.3135 24.4942 13.2801C24.9966 14.0549 25.5534 14.8007 25.9875 15.6121C26.5092 16.5873 26.9595 17.6052 27.3727 18.6319C27.541 19.0499 27.5756 19.5383 27.5902 19.9973C27.609 20.5908 27.5768 21.1902 27.5131 21.7813C27.3947 22.8797 26.9143 23.8468 26.3037 24.7448C25.2603 26.2793 23.8684 27.3925 22.0681 27.8772C19.8269 28.4807 17.6852 28.1348 15.8039 26.7672C14.2246 25.6191 13.1537 24.0744 12.6966 22.1306C12.5207 21.3823 12.553 20.6381 12.5702 19.8915C12.5794 19.4957 12.7015 19.1026 12.8087 18.6625C12.9897 18.1971 13.1344 17.7775 13.2791 17.3579C13.2791 17.3579 13.281 17.3611 13.2942 17.3431C13.3248 17.2819 13.3422 17.2388 13.3596 17.1956C13.3596 17.1956 13.3603 17.2006 13.3831 17.189C13.5253 16.9139 13.6448 16.6503 13.7642 16.3868C13.7642 16.3868 13.7666 16.3554 13.7967 16.3301C13.966 16.0392 14.1052 15.7737 14.2444 15.5082C14.2444 15.5082 14.2468 15.4784 14.2769 15.4534C14.3656 15.3231 14.4241 15.2178 14.4826 15.1125C14.4826 15.1125 14.4873 15.0782 14.5178 15.0514C14.6055 14.922 14.6628 14.8193 14.7201 14.7167C14.7201 14.7167 14.7207 14.7218 14.7403 14.7053C14.8261 14.5648 14.8922 14.4408 14.9584 14.3168C14.9584 14.3168 14.9601 14.3205 14.9816 14.308C15.0431 14.2214 15.083 14.1474 15.123 14.0733C15.123 14.0733 15.1268 14.0391 15.1527 14.0117C15.212 13.935 15.2456 13.8857 15.2792 13.8365C15.2792 13.8365 15.2803 13.8407 15.3032 13.8277C15.3919 13.6844 15.4578 13.5542 15.5237 13.4239C15.5237 13.4239 15.5241 13.4033 15.552 13.3825C15.6126 13.3067 15.6453 13.2517 15.6781 13.1967C15.6781 13.1967 15.6802 13.2002 15.7025 13.1874C15.7646 13.0984 15.8043 13.0221 15.8441 12.9457C15.8469 12.9176 15.8612 12.8977 15.9241 12.8656C16.0013 12.7759 16.0413 12.7064 16.0814 12.637C16.0814 12.637 16.0865 12.6018 16.1134 12.5739C16.1745 12.4958 16.2086 12.4456 16.2428 12.3954C16.2428 12.3954 16.2465 12.3629 16.2733 12.3362C16.3336 12.2586 16.3671 12.2076 16.4006 12.1567C16.4006 12.1567 16.4012 12.1615 16.4223 12.1482C16.4837 12.0594 16.5239 11.9839 16.5641 11.9083C16.5641 11.9083 16.565 11.8833 16.5932 11.8596C16.6553 11.7793 16.6892 11.7228 16.7232 11.6663C16.7479 11.6337 16.7725 11.6011 16.8285 11.539C16.8933 11.4583 16.9268 11.4071 16.9603 11.356C16.9603 11.356 16.9608 11.361 16.9816 11.3484C17.0408 11.2624 17.0791 11.1891 17.1175 11.1159C17.1175 11.1159 17.1197 11.1199 17.142 11.1072C17.2039 11.0174 17.2436 10.9402 17.2833 10.8631C17.2842 10.8396 17.2947 10.8218 17.3565 10.7977C17.4386 10.7092 17.479 10.6328 17.5194 10.5564C17.5194 10.5564 17.5205 10.5609 17.5422 10.5474C17.6037 10.4572 17.6435 10.3804 17.6832 10.3036C17.7072 10.2729 17.7312 10.2421 17.7883 10.1822C17.8553 10.0978 17.8893 10.0425 17.9233 9.98713C17.9256 9.95884 17.9395 9.9384 18.0056 9.90833C18.0854 9.81852 18.1245 9.74618 18.1635 9.67385C18.1635 9.67385 18.1657 9.64479 18.1931 9.61986C18.2533 9.54197 18.286 9.48903 18.3187 9.43608C18.3187 9.43608 18.3202 9.43999 18.3508 9.43904C18.8537 9.37612 18.8745 9.34258 18.8792 8.63595C18.8792 8.63595 18.8807 8.63961 18.9087 8.6419C19.1517 8.58329 19.384 8.5557 19.5778 8.45446C19.9621 8.25375 20.2019 7.78729 20.7234 7.83607C20.7234 7.83607 20.7202 7.83928 20.7244 7.86387C20.7802 7.95121 20.8318 8.01397 20.8834 8.07673C20.8834 8.07673 20.8801 8.07986 20.8886 8.09576C20.9089 8.13412 20.9251 8.15287 20.9455 8.16789ZM15.8162 17.9724C15.7961 17.9546 15.7761 17.9367 15.7611 17.9187C15.7611 17.9187 15.7602 17.9237 15.7397 17.8817C15.7017 17.8551 15.6636 17.8285 15.636 17.803C15.636 17.803 15.6344 17.8134 15.6188 17.756C15.3975 17.4366 15.0959 17.4848 14.8125 17.6176C14.3401 17.8389 13.9376 18.8364 14.0785 19.4401C14.1319 20.2418 14.1307 21.052 14.255 21.8425C14.3683 22.5632 14.701 23.2112 15.3528 23.631C15.85 23.9511 16.5335 23.7683 16.7126 23.2324C16.8169 22.9205 16.8253 22.5765 16.88 22.1745C16.8276 21.8733 16.7752 21.5721 16.7239 21.2202C16.7221 21.1865 16.7204 21.1529 16.7582 21.0812C17.0448 20.8518 17.1343 20.617 16.8322 20.316C16.7393 20.2235 16.7154 20.0549 16.676 19.9165C16.5557 19.4944 16.4679 19.0609 16.3174 18.6502C16.2401 18.4392 16.0563 18.2674 15.9214 18.0785C15.9214 18.0785 15.9222 18.0793 15.8959 18.05C15.8775 18.0311 15.8576 18.014 15.8417 17.9983C15.8417 17.9983 15.8416 18.0038 15.8162 17.9724ZM17.4176 19.9155C17.6233 19.8778 17.8892 19.9086 18.0235 19.7901C18.4769 19.3902 18.8836 18.9374 19.372 18.4397C19.0881 18.3733 18.9035 18.3301 18.8303 18.313C18.5512 18.614 18.3334 18.8461 18.1187 19.0811C17.8644 19.3594 17.6127 19.6401 17.312 19.9274C17.265 19.9697 17.218 20.012 17.1711 20.0542C17.1984 20.0768 17.2257 20.0994 17.253 20.122C17.2887 20.0547 17.3245 19.9875 17.4176 19.9155ZM23.0011 24.4809C23.3306 24.2117 23.6859 23.966 23.8963 23.5819C23.9411 23.5001 23.9772 23.3526 23.9355 23.2981C23.8641 23.2049 23.7341 23.1383 23.6163 23.1071C23.5626 23.0929 23.4386 23.175 23.416 23.2382C23.1744 23.9159 22.6303 24.2917 22.0565 24.646C21.9892 24.6876 21.9633 24.7963 21.9183 24.8738C22.0039 24.9064 22.1138 24.9901 22.1711 24.963C22.4446 24.8332 22.7038 24.6733 23.0011 24.4809ZM21.1444 25.3465C21.1057 25.5328 20.988 25.7721 21.2729 25.8309C21.4341 25.8642 21.6505 25.7997 21.7886 25.703C21.8555 25.6561 21.8564 25.3921 21.7881 25.2989C21.6106 25.0567 21.3803 25.1344 21.1444 25.3465ZM23.2817 14.2941C23.5264 14.3325 23.7359 14.2553 23.7285 13.9928C23.7241 13.8374 23.6023 13.637 23.4715 13.5535C23.4045 13.5107 23.1438 13.6455 23.0741 13.762C22.9677 13.9397 22.9364 14.1757 23.2817 14.2941ZM17.67 20.0955C17.6784 20.0909 17.6869 20.0863 17.6953 20.0818C17.6891 20.0748 17.6829 20.0678 17.6767 20.0608C17.6713 20.0688 17.6659 20.0768 17.67 20.0955Z" fill="#FEFFFD"/>
<path d="M20.7199 7.80722C20.2017 7.78728 19.9619 8.25374 19.5776 8.45446C19.3838 8.5557 19.1515 8.58329 18.907 8.64072C19.2682 7.96801 19.659 7.29877 20.0759 6.58496C20.3227 7.04459 20.5196 7.41148 20.7199 7.80722Z" fill="#FEFFFD"/>
<path d="M24.4868 13.2526C24.3425 13.3135 24.1918 13.3652 24.0388 13.3727C23.9593 13.3766 23.876 13.3023 23.7944 13.2634C23.8435 13.2033 23.8914 13.1422 23.9421 13.0835C24.0115 13.0031 24.083 12.9245 24.1573 12.8177C24.267 12.9353 24.3732 13.0802 24.4868 13.2526Z" fill="#FEFFFD"/>
<path d="M18.8531 8.646C18.8744 9.34262 18.8536 9.37616 18.3489 9.43805C18.4866 9.17732 18.6568 8.91666 18.8531 8.646Z" fill="#FEFFFD"/>
<path d="M13.2531 17.3708C13.1342 17.7775 12.9895 18.1971 12.8269 18.6396C12.9484 18.2362 13.0879 17.81 13.2531 17.3708Z" fill="black"/>
<path d="M13.7369 16.3978C13.6447 16.6504 13.5253 16.9139 13.3806 17.1888C13.4734 16.9364 13.5915 16.6726 13.7369 16.3978Z" fill="black"/>
<path d="M14.2173 15.519C14.1051 15.7737 13.9659 16.0392 13.8022 16.3154C13.9153 16.0607 14.0528 15.7953 14.2173 15.519Z" fill="black"/>
<path d="M15.4974 13.4355C15.4578 13.5542 15.3919 13.6845 15.301 13.8271C15.3411 13.7088 15.4061 13.578 15.4974 13.4355Z" fill="black"/>
<path d="M14.9317 14.3252C14.8921 14.4408 14.8259 14.5648 14.7375 14.7051C14.7786 14.5921 14.8419 14.4628 14.9317 14.3252Z" fill="black"/>
<path d="M14.695 14.7251C14.6628 14.8194 14.6055 14.9221 14.5239 15.0353C14.5564 14.9417 14.6132 14.8376 14.695 14.7251Z" fill="black"/>
<path d="M14.4569 15.1217C14.4239 15.2178 14.3654 15.3231 14.2822 15.4395C14.3155 15.344 14.3735 15.2374 14.4569 15.1217Z" fill="black"/>
<path d="M15.0977 14.0829C15.0829 14.1474 15.0429 14.2214 14.9795 14.3075C14.9949 14.2438 15.0337 14.1681 15.0977 14.0829Z" fill="black"/>
<path d="M20.8806 8.05081C20.8317 8.01403 20.7801 7.95127 20.7261 7.86267C20.7751 7.89949 20.8265 7.96216 20.8806 8.05081Z" fill="black"/>
<path d="M17.0922 11.1243C17.0791 11.1891 17.0407 11.2624 16.979 11.3481C16.9927 11.2846 17.0298 11.2086 17.0922 11.1243Z" fill="black"/>
<path d="M18.1387 9.68335C18.1244 9.74617 18.0853 9.8185 18.0242 9.90339C18.0393 9.84158 18.0766 9.76722 18.1387 9.68335Z" fill="black"/>
<path d="M17.6577 10.3148C17.6433 10.3804 17.6036 10.4573 17.5398 10.5471C17.5546 10.4821 17.5934 10.404 17.6577 10.3148Z" fill="black"/>
<path d="M17.4935 10.5649C17.4789 10.6327 17.4385 10.7091 17.3718 10.7932C17.3863 10.7251 17.427 10.6493 17.4935 10.5649Z" fill="black"/>
<path d="M17.2579 10.8743C17.2435 10.9402 17.2038 11.0174 17.1396 11.1068C17.1543 11.0412 17.1934 10.9633 17.2579 10.8743Z" fill="black"/>
<path d="M16.5388 11.9189C16.5239 11.9839 16.4837 12.0594 16.4199 12.1479C16.4354 12.0837 16.4745 12.0066 16.5388 11.9189Z" fill="black"/>
<path d="M15.8183 12.9562C15.8042 13.0221 15.7644 13.0985 15.7004 13.1869C15.715 13.1215 15.7538 13.044 15.8183 12.9562Z" fill="black"/>
<path d="M16.0565 12.6459C16.0413 12.7065 16.0012 12.7759 15.9426 12.8613C15.96 12.8031 15.9959 12.7289 16.0565 12.6459Z" fill="black"/>
<path d="M16.3769 12.1643C16.3672 12.2077 16.3337 12.2586 16.2793 12.3211C16.29 12.279 16.3215 12.2254 16.3769 12.1643Z" fill="black"/>
<path d="M16.6981 11.6764C16.6891 11.7229 16.6551 11.7794 16.5984 11.8483C16.6082 11.8026 16.6407 11.7445 16.6981 11.6764Z" fill="black"/>
<path d="M16.9365 11.3636C16.9268 11.4071 16.8933 11.4583 16.8389 11.5208C16.8495 11.4786 16.8811 11.425 16.9365 11.3636Z" fill="black"/>
<path d="M15.6528 13.2043C15.6452 13.2517 15.6125 13.3067 15.5574 13.3739C15.5659 13.328 15.5968 13.27 15.6528 13.2043Z" fill="black"/>
<path d="M16.2192 12.4032C16.2084 12.4456 16.1743 12.4958 16.1194 12.5572C16.131 12.5159 16.1634 12.4635 16.2192 12.4032Z" fill="black"/>
<path d="M15.2563 13.8444C15.2456 13.8858 15.212 13.935 15.1582 13.9954C15.1698 13.9551 15.2016 13.9036 15.2563 13.8444Z" fill="black"/>
<path d="M18.294 9.4436C18.2858 9.48906 18.2531 9.54201 18.1987 9.60651C18.2079 9.56241 18.2387 9.50675 18.294 9.4436Z" fill="black"/>
<path d="M17.8988 9.99719C17.8892 10.0424 17.8552 10.0978 17.7991 10.1655C17.8094 10.1211 17.8419 10.0642 17.8988 9.99719Z" fill="black"/>
<path d="M13.3364 17.2059C13.3421 17.2388 13.3247 17.282 13.2922 17.3431C13.2892 17.3128 13.3012 17.2645 13.3364 17.2059Z" fill="black"/>
<path d="M24.1467 12.7052C24.1267 12.7092 24.1118 12.69 24.0908 12.6527C24.1046 12.6524 24.127 12.6682 24.1467 12.7052Z" fill="black"/>
<path d="M24.0796 12.6175C24.0612 12.6245 24.0419 12.6069 24.0156 12.5693C24.0288 12.5673 24.0522 12.5818 24.0796 12.6175Z" fill="black"/>
<path d="M20.9503 8.1457C20.9249 8.15294 20.9088 8.13419 20.8901 8.09439C20.9073 8.09252 20.9312 8.10798 20.9503 8.1457Z" fill="black"/>
<path d="M22.9845 24.5025C22.7037 24.6733 22.4446 24.8331 22.1711 24.9629C22.1138 24.9901 22.0039 24.9064 21.9182 24.8738C21.9633 24.7962 21.9891 24.6876 22.0564 24.646C22.6303 24.2917 23.1743 23.9159 23.4159 23.2382C23.4385 23.175 23.5625 23.0929 23.6163 23.1071C23.734 23.1383 23.864 23.2048 23.9354 23.298C23.9772 23.3525 23.941 23.5001 23.8962 23.5818C23.6858 23.966 23.3305 24.2117 22.9845 24.5025Z" fill="#FEFFFD"/>
<path d="M17.3599 19.9198C17.6127 19.6401 17.8644 19.3594 18.1187 19.0811C18.3334 18.8462 18.5512 18.614 18.8303 18.313C18.9035 18.3301 19.0882 18.3733 19.372 18.4397C18.8836 18.9374 18.477 19.3902 18.0236 19.7901C17.8892 19.9086 17.6233 19.8779 17.3889 19.9178C17.5 20 17.3599 19.9198 17.3599 19.9198Z" fill="#FEFFFD"/>
<path d="M16.7383 21.1002C16.6403 20.7439 16.5809 20.3634 16.4797 19.9944C16.309 19.3717 16.1119 18.7563 15.9231 18.1078C16.0561 18.2673 16.24 18.4392 16.3173 18.6502C16.4678 19.0609 16.5555 19.4944 16.6758 19.9165C16.7152 20.0549 16.7391 20.2234 16.832 20.316C17.1342 20.617 17.0446 20.8518 16.7383 21.1002Z" fill="#FEFFFD"/>
<path d="M21.1583 25.3209C21.3801 25.1345 21.6104 25.0568 21.788 25.299C21.8562 25.3921 21.8553 25.6562 21.7884 25.7031C21.6503 25.7998 21.434 25.8643 21.2727 25.831C20.9878 25.7721 21.1055 25.5329 21.1583 25.3209Z" fill="#FEFFFD"/>
<path d="M23.2528 14.2856C22.9363 14.1757 22.9676 13.9397 23.0739 13.762C23.1436 13.6456 23.4044 13.5107 23.4714 13.5535C23.6021 13.637 23.7239 13.8374 23.7283 13.9929C23.7358 14.2553 23.5262 14.3325 23.2528 14.2856Z" fill="#FEFFFD"/>
<path d="M15.6265 17.7848C15.1135 17.5668 14.62 17.7363 14.4304 18.2593C14.3043 18.607 14.2313 18.9739 14.1077 19.3491C13.9374 18.8364 14.3399 17.839 14.8123 17.6176C15.0957 17.4849 15.3973 17.4367 15.6265 17.7848Z" fill="#FEFFFD"/>
<path d="M17.36 19.9201C17.3243 19.9875 17.2886 20.0547 17.2528 20.122C17.2255 20.0994 17.1982 20.0768 17.1709 20.0542C17.2179 20.012 17.2648 19.9697 17.3357 19.9236C17.3596 19.9197 17.3599 19.92 17.36 19.9201Z" fill="#FEFFFD"/>
<path d="M17.6653 20.0901C17.6659 20.0767 17.6713 20.0688 17.6767 20.0608C17.6829 20.0678 17.6891 20.0747 17.6953 20.0817C17.6869 20.0863 17.6785 20.0909 17.6653 20.0901Z" fill="black"/>
<path d="M15.7498 17.9027C15.7243 17.8962 15.6886 17.8687 15.6392 17.8215C15.6635 17.8284 15.7015 17.855 15.7498 17.9027Z" fill="black"/>
<path d="M22.2799 25.1602C22.2802 25.1611 22.2796 25.1592 22.2799 25.1602Z" fill="black"/>
<path d="M15.9089 18.0647C15.8979 18.0661 15.8736 18.0528 15.8428 18.0191C15.8575 18.014 15.8774 18.0311 15.9089 18.0647Z" fill="black"/>
<path d="M15.8287 17.9882C15.8173 17.9894 15.7931 17.9749 15.7625 17.9396C15.776 17.9367 15.796 17.9546 15.8287 17.9882Z" fill="black"/>
<path d="M17 19H19V21H17V19Z" fill="#FEFFFD"/>
</g>
<defs>
<clipPath id="clip0_18_233">
<rect width="40" height="40" fill="white"/>
</clipPath>
</defs>
</svg>
