<svg width="12" height="18" viewBox="0 0 12 18" fill="none" xmlns="http://www.w3.org/2000/svg">
<path d="M9.30833 5.48628C8.56667 4.37794 7.64167 2.98628 6.55833 1.08628C6.48565 0.958027 6.38025 0.851354 6.25288 0.777137C6.12552 0.702921 5.98074 0.663818 5.83333 0.663818C5.68592 0.663818 5.54115 0.702921 5.41378 0.777137C5.28642 0.851354 5.18102 0.958027 5.10833 1.08628C4.01667 3.01128 3.1 4.41961 2.35833 5.48628C0.833333 7.76961 0 9.00294 0 11.5029C2.30535e-08 13.05 0.614581 14.5338 1.70854 15.6277C2.80251 16.7217 4.28624 17.3363 5.83333 17.3363C7.38043 17.3363 8.86416 16.7217 9.95812 15.6277C11.0521 14.5338 11.6667 13.05 11.6667 11.5029C11.6667 9.00294 10.8333 7.76961 9.30833 5.48628Z" fill="#FEFFFD"/>
</svg>
