<svg width="31" height="16" viewBox="0 0 31 16" fill="none" xmlns="http://www.w3.org/2000/svg">
<path d="M6.48303 15.5C5.33002 15.5 4.34859 15.2307 3.53873 14.6921C2.72887 14.1535 2.32394 13.4995 2.32394 12.73H0V1.90845C0 1.53286 0.211268 1.20423 0.633803 0.922535C1.05634 0.640845 1.5493 0.5 2.11268 0.5H22.5V4.42019H26.1972L30.9859 8.66901V12.73H28.4859C28.4859 13.4995 28.0824 14.1535 27.2753 14.6921C26.4682 15.2307 25.4881 15.5 24.3351 15.5C23.1821 15.5 22.2007 15.2307 21.3908 14.6921C20.581 14.1535 20.1761 13.4995 20.1761 12.73H10.6338C10.6338 13.4969 10.2303 14.1502 9.42317 14.6901C8.61606 15.23 7.63601 15.5 6.48303 15.5ZM6.47887 14.0915C7.04225 14.0915 7.52347 13.9585 7.92253 13.6925C8.3216 13.4264 8.52113 13.1056 8.52113 12.73C8.52113 12.3545 8.3216 12.0336 7.92253 11.7676C7.52347 11.5016 7.04225 11.3685 6.47887 11.3685C5.91549 11.3685 5.43427 11.5016 5.03521 11.7676C4.63615 12.0336 4.43662 12.3545 4.43662 12.73C4.43662 13.1056 4.63615 13.4264 5.03521 13.6925C5.43427 13.9585 5.91549 14.0915 6.47887 14.0915ZM2.11268 11.3216H2.88732C3.28638 10.8991 3.79156 10.5626 4.40285 10.3122C5.01414 10.0618 5.69489 9.93662 6.44511 9.93662C7.19532 9.93662 7.88145 10.0657 8.50352 10.3239C9.12559 10.5822 9.63615 10.9147 10.0352 11.3216H20.3873V1.90845H2.11268V11.3216ZM24.331 14.0915C24.8944 14.0915 25.3756 13.9585 25.7746 13.6925C26.1737 13.4264 26.3732 13.1056 26.3732 12.73C26.3732 12.3545 26.1737 12.0336 25.7746 11.7676C25.3756 11.5016 24.8944 11.3685 24.331 11.3685C23.7676 11.3685 23.2864 11.5016 22.8873 11.7676C22.4883 12.0336 22.2887 12.3545 22.2887 12.73C22.2887 13.1056 22.4883 13.4264 22.8873 13.6925C23.2864 13.9585 23.7676 14.0915 24.331 14.0915ZM22.5 9.30282H29.0493L25.1408 5.82864H22.5V9.30282Z" fill="#FEFFFD"/>
</svg>
